<svg width="800" height="600" xmlns="http://www.w3.org/2000/svg">

 <g>
  <title>Layer 1</title>
  <g>
   <path d="m632,108l-8,0l0,20c0,6.6 -5.4,12 -12,12l-40,0c-6.6,0 -12,-5.4 -12,-12l0,-20l-320,0l0,20c0,6.6 -5.4,12 -12,12l-40,0c-6.6,0 -12,-5.4 -12,-12l0,-20l-8,0c-13.3,0 -24,10.7 -24,24l0,336c0,13.3 10.7,24 24,24l8,0l0,-20c0,-6.6 5.4,-12 12,-12l40,0c6.6,0 12,5.4 12,12l0,20l320,0l0,-20c0,-6.6 5.4,-12 12,-12l40,0c6.6,0 12,5.4 12,12l0,20l8,0c13.3,0 24,-10.7 24,-24l0,-336c0,-13.3 -10.7,-24 -24,-24zm-392,308c0,6.6 -5.4,12 -12,12l-40,0c-6.6,0 -12,-5.4 -12,-12l0,-40c0,-6.6 5.4,-12 12,-12l40,0c6.6,0 12,5.4 12,12l0,40zm0,-96c0,6.6 -5.4,12 -12,12l-40,0c-6.6,0 -12,-5.4 -12,-12l0,-40c0,-6.6 5.4,-12 12,-12l40,0c6.6,0 12,5.4 12,12l0,40zm0,-96c0,6.6 -5.4,12 -12,12l-40,0c-6.6,0 -12,-5.4 -12,-12l0,-40c0,-6.6 5.4,-12 12,-12l40,0c6.6,0 12,5.4 12,12l0,40zm272,208c0,6.6 -5.4,12 -12,12l-200,0c-6.6,0 -12,-5.4 -12,-12l0,-96c0,-6.6 5.4,-12 12,-12l200,0c6.6,0 12,5.4 12,12l0,96zm0,-168c0,6.6 -5.4,12 -12,12l-200,0c-6.6,0 -12,-5.4 -12,-12l0,-96c0,-6.6 5.4,-12 12,-12l200,0c6.6,0 12,5.4 12,12l0,96zm112,152c0,6.6 -5.4,12 -12,12l-40,0c-6.6,0 -12,-5.4 -12,-12l0,-40c0,-6.6 5.4,-12 12,-12l40,0c6.6,0 12,5.4 12,12l0,40zm0,-96c0,6.6 -5.4,12 -12,12l-40,0c-6.6,0 -12,-5.4 -12,-12l0,-40c0,-6.6 5.4,-12 12,-12l40,0c6.6,0 12,5.4 12,12l0,40zm0,-96c0,6.6 -5.4,12 -12,12l-40,0c-6.6,0 -12,-5.4 -12,-12l0,-40c0,-6.6 5.4,-12 12,-12l40,0c6.6,0 12,5.4 12,12l0,40z" fill="#ffffff"/>
  </g>
 </g>
</svg>